<?xml version="1.0" encoding="utf-8"?>
<!-- Generator: Adobe Illustrator 21.0.2, SVG Export Plug-In . SVG Version: 6.00 Build 0)  -->
<svg version="1.1" id="Layer_1" xmlns="http://www.w3.org/2000/svg" xmlns:xlink="http://www.w3.org/1999/xlink" x="0px" y="0px"
	 viewBox="0 0 226.8 70.9" style="enable-background:new 0 0 226.8 70.9;" xml:space="preserve">
<style type="text/css">
	.st0{fill:#8F0057;}
</style>
<g>
	<path class="st0" d="M4.1,3.8h3.7v31.4h10.5v3.2H4.1V3.8z"/>
	<path class="st0" d="M28.4,8.8c5.8,0,8.8,2.5,8.8,7.5v22.1h-3.5v-2.1c-1.8,1.5-3.8,2.3-6.3,2.3c-4.8,0-7.2-2.4-7.2-7.1v-1.6
		c0-3.6,2.1-5.9,6.2-7.1l7.2-2v-4.5c0-1.4-0.4-2.4-1.2-3.1c-0.8-0.7-2.3-1-4.6-1c-2.3,0-4.4,0.3-6.3,1V9.8
		C23.5,9.2,25.8,8.8,28.4,8.8z M23.7,30.1v1.5c0,1.4,0.3,2.4,1,3c0.7,0.7,1.9,1,3.7,1c1.8,0,3.5-0.7,5.1-2V24l-5.9,1.6
		c-1.5,0.4-2.6,1-3.1,1.6C24,27.9,23.7,28.9,23.7,30.1z"/>
	<path class="st0" d="M44,9.3h3.7v29.6c0,2.3-0.6,4.1-1.8,5.4c-1.2,1.3-2.9,1.9-5.2,1.9c-0.5,0-1-0.1-1.5-0.2v-3.3
		c0.5,0.1,1,0.1,1.4,0.1c1.2,0,2.1-0.3,2.6-0.9c0.5-0.6,0.8-1.6,0.8-3V9.3z M45.8,5.8c-1.5,0-2.2-0.8-2.2-2.4c0-1.6,0.7-2.4,2.2-2.4
		S48,1.9,48,3.4C48,5,47.3,5.8,45.8,5.8z"/>
	<path class="st0" d="M54.2,16.6c0-2.4,0.7-4.4,2.1-5.8c1.4-1.4,3.5-2.2,6.3-2.2c2.8,0,4.9,0.7,6.3,2.2c1.4,1.4,2.1,3.4,2.1,5.8
		v14.4c0,2.4-0.7,4.4-2.1,5.8c-1.4,1.4-3.5,2.2-6.3,2.2c-2.8,0-4.9-0.7-6.3-2.2c-1.4-1.4-2.1-3.4-2.1-5.8V16.6z M67.3,16.6
		c0-3.2-1.6-4.8-4.7-4.8c-3.2,0-4.7,1.6-4.7,4.8v14.3c0,3.2,1.6,4.8,4.7,4.8c3.2,0,4.7-1.6,4.7-4.8V16.6z"/>
	<path class="st0" d="M75.4,16c0-2.4,0.7-4.2,2.1-5.4c1.4-1.2,3.6-1.8,6.7-1.8c1.9,0,3.8,0.3,5.7,0.9v3.4c-1.7-0.6-3.6-0.9-5.7-0.9
		c-2.1,0-3.5,0.3-4.2,0.9c-0.7,0.6-1.1,1.6-1.1,3v1.3c0,1.1,0.2,1.9,0.6,2.5c0.4,0.6,1.2,1.1,2.4,1.6l4.4,2.2
		c3.1,1.5,4.6,3.6,4.6,6.3v1.4c0,4.8-3.1,7.2-9.3,7.2c-2.3,0-4.4-0.3-6.2-0.8v-3.4c1.8,0.6,3.8,0.9,5.9,0.9c2.2,0,3.7-0.3,4.6-1
		c0.9-0.7,1.3-1.7,1.3-3v-1c0-1-0.2-1.7-0.7-2.2c-0.4-0.5-1.3-1.1-2.6-1.7l-4.4-2.1c-2.9-1.4-4.3-3.6-4.3-6.5V16z"/>
	<path class="st0" d="M105.8,3.8h3.7v34.6h-3.7V3.8z M119.3,3.8h4L116,21l7.7,17.4h-4.1l-7.5-17.3L119.3,3.8z"/>
	<path class="st0" d="M127.6,16.6c0-2.4,0.7-4.4,2.1-5.8c1.4-1.4,3.5-2.2,6.3-2.2c2.8,0,4.9,0.7,6.3,2.2c1.4,1.4,2.1,3.4,2.1,5.8
		v14.4c0,2.4-0.7,4.4-2.1,5.8c-1.4,1.4-3.5,2.2-6.3,2.2c-2.8,0-4.9-0.7-6.3-2.2c-1.4-1.4-2.1-3.4-2.1-5.8V16.6z M140.7,16.6
		c0-3.2-1.6-4.8-4.7-4.8c-3.2,0-4.7,1.6-4.7,4.8v14.3c0,3.2,1.6,4.8,4.7,4.8c3.2,0,4.7-1.6,4.7-4.8V16.6z"/>
	<path class="st0" d="M162.6,9.1h3.7l-6.5,29.3h-5.2l-6.5-29.3h3.8l2.8,13.4l2.5,13.3C158.4,30.1,160.1,21.2,162.6,9.1z"/>
	<path class="st0" d="M177.1,8.8c5.8,0,8.8,2.5,8.8,7.5v22.1h-3.5v-2.1c-1.8,1.5-3.8,2.3-6.3,2.3c-4.8,0-7.2-2.4-7.2-7.1v-1.6
		c0-3.6,2.1-5.9,6.2-7.1l7.2-2v-4.5c0-1.4-0.4-2.4-1.2-3.1c-0.8-0.7-2.3-1-4.6-1c-2.3,0-4.4,0.3-6.3,1V9.8
		C172.2,9.2,174.5,8.8,177.1,8.8z M172.4,30.1v1.5c0,1.4,0.3,2.4,1,3c0.7,0.7,1.9,1,3.7,1c1.8,0,3.5-0.7,5.2-2V24l-5.9,1.6
		c-1.5,0.4-2.6,1-3.1,1.6C172.7,27.9,172.4,28.9,172.4,30.1z"/>
	<path class="st0" d="M192.1,16.3c0-4.9,2.9-7.4,8.7-7.4c2.1,0,3.9,0.2,5.5,0.7v3.3c-1.6-0.4-3.4-0.7-5.4-0.7c-1.9,0-3.3,0.3-4,1
		c-0.7,0.7-1.1,1.7-1.1,3.1v14.8c0,1.4,0.4,2.5,1.1,3.1c0.7,0.7,2.1,1,4.1,1s3.8-0.3,5.4-0.8v3.4c-1.9,0.5-3.7,0.7-5.6,0.7
		c-5.8,0-8.7-2.4-8.7-7.3V16.3z"/>
	<path class="st0" d="M209.6,16c0-2.4,0.7-4.2,2.1-5.4c1.4-1.2,3.6-1.8,6.7-1.8c1.9,0,3.8,0.3,5.7,0.9v3.4c-1.7-0.6-3.6-0.9-5.7-0.9
		c-2.1,0-3.5,0.3-4.2,0.9c-0.7,0.6-1.1,1.6-1.1,3v1.3c0,1.1,0.2,1.9,0.6,2.5c0.4,0.6,1.2,1.1,2.4,1.6l4.4,2.2
		c3.1,1.5,4.6,3.6,4.6,6.3v1.4c0,4.8-3.1,7.2-9.3,7.2c-2.3,0-4.4-0.3-6.2-0.8v-3.4c1.8,0.6,3.8,0.9,5.9,0.9c2.2,0,3.7-0.3,4.6-1
		c0.9-0.7,1.3-1.7,1.3-3v-1c0-1-0.2-1.7-0.7-2.2c-0.4-0.5-1.3-1.1-2.6-1.7l-4.4-2.1c-2.9-1.4-4.3-3.6-4.3-6.5V16z"/>
	<path d="M5,50.5c0-0.9,0.2-1.6,0.7-2c0.5-0.5,1.2-0.7,2.1-0.7c0.3,0,0.6,0,0.9,0.1v1.2C8.6,49,8.3,49,8,49c-1,0-1.5,0.5-1.5,1.5
		v0.7h2.2v1.2H6.5v10.3H5V52.5H3.9v-1.2H5V50.5z"/>
	<path d="M13.9,51.2h0.5v1.4h-0.7c-0.5,0-0.9,0.1-1.3,0.4c-0.1,0.1-0.4,0.3-0.8,0.5v9.3h-1.4V51.2h1.4v0.9c0,0,0.1-0.1,0.3-0.2
		c0.2-0.1,0.3-0.2,0.3-0.2c0,0,0.1-0.1,0.3-0.2c0.1-0.1,0.3-0.1,0.3-0.2c0.1,0,0.2-0.1,0.3-0.1C13.3,51.2,13.6,51.2,13.9,51.2z"/>
	<path d="M15.7,54.2c0-1,0.3-1.7,0.8-2.3c0.5-0.6,1.4-0.9,2.5-0.9c1.1,0,1.9,0.3,2.5,0.9c0.5,0.6,0.8,1.3,0.8,2.3v5.7
		c0,1-0.3,1.7-0.8,2.3C21,62.7,20.1,63,19,63c-1.1,0-1.9-0.3-2.5-0.9c-0.5-0.6-0.8-1.3-0.8-2.3V54.2z M20.9,54.2
		c0-1.3-0.6-1.9-1.9-1.9c-1.2,0-1.9,0.6-1.9,1.9v5.6c0,1.3,0.6,1.9,1.9,1.9c1.2,0,1.9-0.6,1.9-1.9V54.2z"/>
	<path d="M26.3,51.8c0.9-0.4,1.7-0.6,2.5-0.6s1.4,0.2,1.9,0.7c0.5,0.5,0.7,1.1,0.7,2v8.9H30V54c0-1-0.5-1.5-1.5-1.5
		c-0.6,0-1.3,0.2-2.1,0.5v9.7h-1.4V51.2h1.4V51.8z"/>
	<path d="M35.5,49.1v2.1h2.6v1.3h-2.6v7.7c0,0.5,0.1,0.8,0.3,1c0.2,0.2,0.6,0.3,1.1,0.3c0.5,0,0.9-0.1,1.4-0.2v1.3
		c-0.5,0.1-1.1,0.2-1.5,0.2c-1.8,0-2.7-0.9-2.7-2.6v-7.8h-1.3v-1.3h1.3l0.4-2.1H35.5z"/>
	<path d="M43.7,59.9v-5.7c0-1,0.3-1.7,0.8-2.3C45,51.3,45.9,51,47,51s1.9,0.3,2.5,0.9c0.5,0.6,0.8,1.3,0.8,2.3v3.5h-5.2v2.1
		c0,0.6,0.2,1.1,0.6,1.4c0.4,0.3,1,0.4,1.8,0.4c0.8,0,1.6-0.1,2.5-0.4v1.3c-0.7,0.2-1.5,0.3-2.4,0.3C44.9,62.9,43.7,61.9,43.7,59.9z
		 M45.1,56.6h3.8v-2.3c0-1.3-0.6-1.9-1.9-1.9s-1.9,0.6-1.9,1.9V56.6z"/>
	<path d="M54.1,51.8c0.9-0.4,1.7-0.6,2.5-0.6s1.4,0.2,1.9,0.7c0.5,0.5,0.7,1.1,0.7,2v8.9h-1.4V54c0-1-0.5-1.5-1.5-1.5
		c-0.6,0-1.3,0.2-2.1,0.5v9.7h-1.4V51.2h1.4V51.8z"/>
	<path d="M66.8,48.2h1.4v14.7h-1.4v-0.7c-0.6,0.5-1.4,0.7-2.3,0.7s-1.6-0.3-2.1-0.8c-0.5-0.5-0.7-1.2-0.7-2.2v-5.7
		c0-1,0.3-1.7,0.9-2.2s1.3-0.8,2.3-0.8h1.9V48.2z M66.8,52.6h-1.7c-1.3,0-1.9,0.6-1.9,1.8v5.6c0,1.1,0.5,1.7,1.6,1.7
		c0.8,0,1.5-0.2,2-0.7V52.6z"/>
	<path d="M79.7,48.2h1.4v14.7h-1.4v-0.7c-0.6,0.5-1.4,0.7-2.3,0.7s-1.6-0.3-2.1-0.8c-0.5-0.5-0.7-1.2-0.7-2.2v-5.7
		c0-1,0.3-1.7,0.9-2.2s1.3-0.8,2.3-0.8h1.9V48.2z M79.7,52.6H78c-1.3,0-1.9,0.6-1.9,1.8v5.6c0,1.1,0.5,1.7,1.6,1.7
		c0.8,0,1.5-0.2,2-0.7V52.6z"/>
	<path d="M83.8,59.9v-5.7c0-1,0.3-1.7,0.8-2.3c0.5-0.6,1.4-0.9,2.5-0.9s1.9,0.3,2.5,0.9c0.5,0.6,0.8,1.3,0.8,2.3v3.5h-5.2v2.1
		c0,0.6,0.2,1.1,0.6,1.4c0.4,0.3,1,0.4,1.8,0.4c0.8,0,1.6-0.1,2.5-0.4v1.3c-0.7,0.2-1.5,0.3-2.4,0.3C85,62.9,83.8,61.9,83.8,59.9z
		 M85.2,56.6H89v-2.3c0-1.3-0.6-1.9-1.9-1.9s-1.9,0.6-1.9,1.9V56.6z"/>
	<path d="M97.5,51.2h1.5l-2.6,11.6h-2l-2.6-11.6h1.5l1.1,5.3l1,5.3C95.8,59.5,96.5,56,97.5,51.2z"/>
	<path d="M100.5,59.9v-5.7c0-1,0.3-1.7,0.8-2.3c0.5-0.6,1.4-0.9,2.5-0.9s1.9,0.3,2.5,0.9c0.5,0.6,0.8,1.3,0.8,2.3v3.5h-5.2v2.1
		c0,0.6,0.2,1.1,0.6,1.4c0.4,0.3,1,0.4,1.8,0.4c0.8,0,1.6-0.1,2.5-0.4v1.3c-0.7,0.2-1.5,0.3-2.4,0.3
		C101.8,62.9,100.5,61.9,100.5,59.9z M101.9,56.6h3.8v-2.3c0-1.3-0.6-1.9-1.9-1.9s-1.9,0.6-1.9,1.9V56.6z"/>
	<path d="M109.6,48.2h1.4v14.7h-1.4V48.2z"/>
	<path d="M113.6,54.2c0-1,0.3-1.7,0.8-2.3c0.5-0.6,1.4-0.9,2.5-0.9s1.9,0.3,2.5,0.9c0.5,0.6,0.8,1.3,0.8,2.3v5.7
		c0,1-0.3,1.7-0.8,2.3c-0.5,0.6-1.4,0.9-2.5,0.9s-1.9-0.3-2.5-0.9c-0.5-0.6-0.8-1.3-0.8-2.3V54.2z M118.8,54.2
		c0-1.3-0.6-1.9-1.9-1.9s-1.9,0.6-1.9,1.9v5.6c0,1.3,0.6,1.9,1.9,1.9s1.9-0.6,1.9-1.9V54.2z"/>
	<path d="M124.2,51.8c0.9-0.4,1.7-0.6,2.5-0.6s1.4,0.2,1.9,0.7c0.5,0.5,0.7,1.1,0.7,2v5.9c0,1-0.3,1.7-0.8,2.2
		c-0.5,0.5-1.3,0.8-2.2,0.8h-2.1v3h-1.4V51.2h1.4V51.8z M127.9,54c0-1-0.5-1.5-1.5-1.5c-0.7,0-1.4,0.2-2.1,0.5v8.4h1.7
		c1.3,0,1.9-0.6,1.9-1.8V54z"/>
	<path d="M131.7,59.9v-5.7c0-1,0.3-1.7,0.8-2.3c0.5-0.6,1.4-0.9,2.5-0.9s1.9,0.3,2.5,0.9c0.5,0.6,0.8,1.3,0.8,2.3v3.5h-5.2v2.1
		c0,0.6,0.2,1.1,0.6,1.4c0.4,0.3,1,0.4,1.8,0.4c0.8,0,1.6-0.1,2.5-0.4v1.3c-0.7,0.2-1.5,0.3-2.4,0.3C133,62.9,131.7,61.9,131.7,59.9
		z M133.1,56.6h3.8v-2.3c0-1.3-0.6-1.9-1.9-1.9s-1.9,0.6-1.9,1.9V56.6z"/>
	<path d="M144.5,51.2h0.5v1.4h-0.7c-0.5,0-0.9,0.1-1.3,0.4c-0.1,0.1-0.4,0.3-0.8,0.5v9.3h-1.4V51.2h1.4v0.9c0,0,0.1-0.1,0.3-0.2
		c0.2-0.1,0.3-0.2,0.3-0.2c0,0,0.1-0.1,0.3-0.2c0.1-0.1,0.3-0.1,0.3-0.2c0.1,0,0.2-0.1,0.3-0.1C143.9,51.2,144.2,51.2,144.5,51.2z"
		/>
	<path d="M152.9,51.1c2.3,0,3.5,1,3.5,3v8.7h-1.4V62c-0.7,0.6-1.5,0.9-2.5,0.9c-1.9,0-2.8-0.9-2.8-2.8v-0.7c0-1.4,0.8-2.3,2.5-2.8
		l2.8-0.8v-1.8c0-0.6-0.2-1-0.5-1.2c-0.3-0.3-0.9-0.4-1.8-0.4s-1.7,0.1-2.5,0.4v-1.4C150.9,51.3,151.8,51.1,152.9,51.1z M151,59.5
		v0.6c0,0.5,0.1,0.9,0.4,1.2c0.3,0.3,0.7,0.4,1.5,0.4c0.7,0,1.4-0.3,2-0.8v-3.8l-2.3,0.7c-0.6,0.2-1,0.4-1.2,0.7S151,59,151,59.5z"
		/>
	<path d="M160.4,51.8c0.9-0.4,1.7-0.6,2.5-0.6s1.4,0.2,1.9,0.7c0.5,0.5,0.7,1.1,0.7,2v5.9c0,1-0.3,1.7-0.8,2.2
		c-0.5,0.5-1.3,0.8-2.2,0.8h-2.1v3H159V51.2h1.4V51.8z M164.1,54c0-1-0.5-1.5-1.5-1.5c-0.7,0-1.4,0.2-2.1,0.5v8.4h1.7
		c1.3,0,1.9-0.6,1.9-1.8V54z"/>
	<path d="M169.5,51.8c0.9-0.4,1.7-0.6,2.5-0.6s1.4,0.2,1.9,0.7c0.5,0.5,0.7,1.1,0.7,2v5.9c0,1-0.3,1.7-0.8,2.2
		c-0.5,0.5-1.3,0.8-2.2,0.8h-2.1v3h-1.4V51.2h1.4V51.8z M173.2,54c0-1-0.5-1.5-1.5-1.5c-0.7,0-1.4,0.2-2.1,0.5v8.4h1.7
		c1.3,0,1.9-0.6,1.9-1.8V54z"/>
	<path d="M181,51.2h0.5v1.4h-0.7c-0.5,0-0.9,0.1-1.3,0.4c-0.1,0.1-0.4,0.3-0.8,0.5v9.3h-1.4V51.2h1.4v0.9c0,0,0.1-0.1,0.3-0.2
		c0.2-0.1,0.3-0.2,0.3-0.2c0,0,0.1-0.1,0.3-0.2c0.1-0.1,0.3-0.1,0.3-0.2c0.1,0,0.2-0.1,0.3-0.1C180.3,51.2,180.6,51.2,181,51.2z"/>
	<path d="M182.8,59.9v-5.7c0-1,0.3-1.7,0.8-2.3c0.5-0.6,1.4-0.9,2.5-0.9s1.9,0.3,2.5,0.9c0.5,0.6,0.8,1.3,0.8,2.3v3.5h-5.2v2.1
		c0,0.6,0.2,1.1,0.6,1.4c0.4,0.3,1,0.4,1.8,0.4c0.8,0,1.6-0.1,2.5-0.4v1.3c-0.7,0.2-1.5,0.3-2.4,0.3
		C184.1,62.9,182.8,61.9,182.8,59.9z M184.2,56.6h3.8v-2.3c0-1.3-0.6-1.9-1.9-1.9s-1.9,0.6-1.9,1.9V56.6z"/>
	<path d="M193.2,51.8c0.9-0.4,1.7-0.6,2.5-0.6s1.4,0.2,1.9,0.7s0.7,1.1,0.7,2v8.9h-1.4V54c0-1-0.5-1.5-1.5-1.5
		c-0.6,0-1.3,0.2-2.1,0.5v9.7h-1.4V51.2h1.4V51.8z"/>
	<path d="M202.5,49.1v2.1h2.6v1.3h-2.6v7.7c0,0.5,0.1,0.8,0.3,1c0.2,0.2,0.6,0.3,1.1,0.3c0.5,0,0.9-0.1,1.4-0.2v1.3
		c-0.5,0.1-1.1,0.2-1.5,0.2c-1.8,0-2.7-0.9-2.7-2.6v-7.8h-1.3v-1.3h1.3l0.4-2.1H202.5z"/>
	<path d="M207.7,49.9c-0.6,0-0.9-0.3-0.9-0.9s0.3-0.9,0.9-0.9c0.6,0,0.9,0.3,0.9,0.9S208.3,49.9,207.7,49.9z M207,51.3h1.4v11.5H207
		V51.3z"/>
	<path d="M211,54.1c0-2,1.1-2.9,3.4-2.9c0.8,0,1.6,0.1,2.2,0.3v1.3c-0.7-0.2-1.4-0.3-2.1-0.3s-1.3,0.1-1.6,0.4
		c-0.3,0.3-0.4,0.7-0.4,1.2V60c0,0.6,0.1,1,0.4,1.2s0.8,0.4,1.6,0.4c0.8,0,1.5-0.1,2.1-0.3v1.4c-0.7,0.2-1.5,0.3-2.2,0.3
		c-2.3,0-3.4-1-3.4-2.9V54.1z"/>
	<path d="M218.5,59.9v-5.7c0-1,0.3-1.7,0.8-2.3c0.5-0.6,1.4-0.9,2.5-0.9s1.9,0.3,2.5,0.9c0.5,0.6,0.8,1.3,0.8,2.3v3.5H220v2.1
		c0,0.6,0.2,1.1,0.6,1.4c0.4,0.3,1,0.4,1.8,0.4c0.8,0,1.6-0.1,2.5-0.4v1.3c-0.7,0.2-1.5,0.3-2.4,0.3
		C219.8,62.9,218.5,61.9,218.5,59.9z M220,56.6h3.8v-2.3c0-1.3-0.6-1.9-1.9-1.9s-1.9,0.6-1.9,1.9V56.6z"/>
</g>
</svg>
